<svg width="2145" height="906" viewBox="0 0 2145 906" fill="none" xmlns="http://www.w3.org/2000/svg">
<mask id="mask0_386_549" style="mask-type:alpha" maskUnits="userSpaceOnUse" x="0" y="0" width="2145" height="906">
<rect width="2145" height="906" fill="#D9D9D9"/>
</mask>
<g mask="url(#mask0_386_549)">
<mask id="path-2-inside-1_386_549" fill="white">
<path fill-rule="evenodd" clip-rule="evenodd" d="M-93.375 48.0034C-357.227 47.462 -476 111.623 -476 119.474V159H-412.229H-93.375H26V795H-280.229H-344V870.803L-280.229 865.93C47.8607 815.093 212.356 844.128 329.184 864.75C362.917 870.704 392.675 875.957 421.25 878.383C548.792 888.67 676.333 892.46 803.875 887.587C931.417 882.173 1058.96 867.554 1186.5 846.979C1314.04 826.404 1410.5 823.426 1569.12 825.592C1727.75 827.758 1938.2 860.515 1938.2 860.515C1938.2 860.515 2183.72 905.997 2334.38 905.997C2598.23 906.538 2717 842.377 2717 834.526V795H2653.23H2334.38H2153V159H2202.38H2521.23H2585V83.1974L2521.23 88.0705C2193.14 138.907 2028.64 109.872 1911.82 89.2502C1878.08 83.2961 1848.32 78.0434 1819.75 75.6172C1692.21 65.3297 1564.67 61.5396 1437.12 66.4126C1309.58 71.8271 1182.04 86.4461 1054.5 107.021C926.958 127.596 830.505 130.574 671.875 128.408C513.245 126.242 302.801 93.4849 302.801 93.4849C302.801 93.4849 57.2836 48.0034 -93.375 48.0034Z"/>
</mask>
<path fill-rule="evenodd" clip-rule="evenodd" d="M-93.375 48.0034C-357.227 47.462 -476 111.623 -476 119.474V159H-412.229H-93.375H26V795H-280.229H-344V870.803L-280.229 865.93C47.8607 815.093 212.356 844.128 329.184 864.75C362.917 870.704 392.675 875.957 421.25 878.383C548.792 888.67 676.333 892.46 803.875 887.587C931.417 882.173 1058.96 867.554 1186.5 846.979C1314.04 826.404 1410.5 823.426 1569.12 825.592C1727.75 827.758 1938.2 860.515 1938.2 860.515C1938.2 860.515 2183.72 905.997 2334.38 905.997C2598.23 906.538 2717 842.377 2717 834.526V795H2653.23H2334.38H2153V159H2202.38H2521.23H2585V83.1974L2521.23 88.0705C2193.14 138.907 2028.64 109.872 1911.82 89.2502C1878.08 83.2961 1848.32 78.0434 1819.75 75.6172C1692.21 65.3297 1564.67 61.5396 1437.12 66.4126C1309.58 71.8271 1182.04 86.4461 1054.5 107.021C926.958 127.596 830.505 130.574 671.875 128.408C513.245 126.242 302.801 93.4849 302.801 93.4849C302.801 93.4849 57.2836 48.0034 -93.375 48.0034Z" fill="#FDF1E9"/>
<path d="M-474.5 119.474C-474.5 118.646 -475.172 117.974 -476 117.974C-476.828 117.974 -477.5 118.646 -477.5 119.474H-474.5ZM-93.3781 49.5034C-92.5497 49.5051 -91.8767 48.8349 -91.875 48.0065C-91.8733 47.1781 -92.5435 46.5051 -93.3719 46.5034L-93.3781 49.5034ZM-476 157.5C-476.828 157.5 -477.5 158.172 -477.5 159C-477.5 159.828 -476.828 160.5 -476 160.5V157.5ZM-412.229 157.5C-413.058 157.5 -413.729 158.172 -413.729 159C-413.729 159.828 -413.058 160.5 -412.229 160.5V157.5ZM-93.375 157.5C-94.2034 157.5 -94.875 158.172 -94.875 159C-94.875 159.828 -94.2034 160.5 -93.375 160.5V157.5ZM27.5 159C27.5 158.172 26.8284 157.5 26 157.5C25.1716 157.5 24.5 158.172 24.5 159H27.5ZM26 796.5C26.8284 796.5 27.5 795.828 27.5 795C27.5 794.172 26.8284 793.5 26 793.5V796.5ZM-280.229 796.5C-279.401 796.5 -278.729 795.828 -278.729 795C-278.729 794.172 -279.401 793.5 -280.229 793.5V796.5ZM-342.5 795C-342.5 794.172 -343.172 793.5 -344 793.5C-344.828 793.5 -345.5 794.172 -345.5 795H-342.5ZM-344.114 869.307C-344.94 869.37 -345.559 870.091 -345.496 870.917C-345.433 871.743 -344.712 872.361 -343.886 872.298L-344.114 869.307ZM-280.459 864.447C-281.278 864.574 -281.838 865.341 -281.712 866.159C-281.585 866.978 -280.818 867.539 -280 867.412L-280.459 864.447ZM329.445 863.273C328.629 863.129 327.851 863.673 327.707 864.489C327.563 865.305 328.108 866.083 328.924 866.227L329.445 863.273ZM421.371 876.888C420.545 876.821 419.821 877.436 419.755 878.262C419.688 879.088 420.304 879.811 421.129 879.878L421.371 876.888ZM803.811 886.089C802.984 886.124 802.341 886.823 802.376 887.651C802.411 888.479 803.111 889.121 803.939 889.086L803.811 886.089ZM1186.26 845.498C1185.44 845.63 1184.89 846.4 1185.02 847.218C1185.15 848.036 1185.92 848.592 1186.74 848.46L1186.26 845.498ZM1569.15 824.092C1568.32 824.081 1567.64 824.743 1567.63 825.571C1567.61 826.4 1568.28 827.08 1569.1 827.092L1569.15 824.092ZM1938.47 859.04C1937.66 858.889 1936.87 859.427 1936.72 860.242C1936.57 861.056 1937.11 861.839 1937.93 861.99L1938.47 859.04ZM2334.38 904.497C2333.55 904.495 2332.88 905.165 2332.88 905.994C2332.87 906.822 2333.54 907.495 2334.37 907.497L2334.38 904.497ZM2715.5 834.526C2715.5 835.354 2716.17 836.026 2717 836.026C2717.83 836.026 2718.5 835.354 2718.5 834.526H2715.5ZM2717 796.5C2717.83 796.5 2718.5 795.828 2718.5 795C2718.5 794.172 2717.83 793.5 2717 793.5V796.5ZM2653.23 796.5C2654.06 796.5 2654.73 795.828 2654.73 795C2654.73 794.172 2654.06 793.5 2653.23 793.5V796.5ZM2334.38 796.5C2335.2 796.5 2335.88 795.828 2335.88 795C2335.88 794.172 2335.2 793.5 2334.38 793.5V796.5ZM2153 795H2151.5V796.5H2153V795ZM2153 157.5C2152.17 157.5 2151.5 158.172 2151.5 159C2151.5 159.828 2152.17 160.5 2153 160.5V157.5ZM2202.38 157.5C2201.55 157.5 2200.88 158.172 2200.88 159C2200.88 159.828 2201.55 160.5 2202.38 160.5V157.5ZM2521.23 157.5C2520.4 157.5 2519.73 158.172 2519.73 159C2519.73 159.828 2520.4 160.5 2521.23 160.5V157.5ZM2583.5 159C2583.5 159.828 2584.17 160.5 2585 160.5C2585.83 160.5 2586.5 159.828 2586.5 159H2583.5ZM2585.11 84.6931C2585.94 84.63 2586.56 83.9092 2586.5 83.0832C2586.43 82.2571 2585.71 81.6387 2584.89 81.7018L2585.11 84.6931ZM2521.46 89.5528C2522.28 89.4259 2522.84 88.6594 2522.71 87.8408C2522.58 87.0221 2521.82 86.4613 2521 86.5882L2521.46 89.5528ZM1911.55 90.7274C1912.37 90.8714 1913.15 90.3267 1913.29 89.5109C1913.44 88.6951 1912.89 87.917 1912.08 87.773L1911.55 90.7274ZM1819.63 77.1123C1820.46 77.1789 1821.18 76.5635 1821.25 75.7378C1821.31 74.912 1820.7 74.1886 1819.87 74.122L1819.63 77.1123ZM1437.19 67.9112C1438.02 67.8761 1438.66 67.1767 1438.62 66.349C1438.59 65.5213 1437.89 64.8788 1437.06 64.9139L1437.19 67.9112ZM1054.74 108.502C1055.56 108.37 1056.11 107.6 1055.98 106.782C1055.85 105.964 1055.08 105.408 1054.26 105.54L1054.74 108.502ZM671.854 129.908C672.683 129.919 673.364 129.257 673.375 128.429C673.386 127.6 672.724 126.92 671.896 126.908L671.854 129.908ZM302.528 94.9598C303.343 95.1107 304.125 94.5727 304.276 93.7582C304.427 92.9436 303.889 92.1609 303.075 92.01L302.528 94.9598ZM-477.5 139.237C-477.5 140.066 -476.828 140.737 -476 140.737C-475.172 140.737 -474.5 140.066 -474.5 139.237H-477.5ZM-444.115 160.5C-443.286 160.5 -442.615 159.828 -442.615 159C-442.615 158.172 -443.286 157.5 -444.115 157.5V160.5ZM-359.087 160.5C-358.258 160.5 -357.587 159.828 -357.587 159C-357.587 158.172 -358.258 157.5 -359.087 157.5V160.5ZM-252.802 157.5C-253.631 157.5 -254.302 158.172 -254.302 159C-254.302 159.828 -253.631 160.5 -252.802 160.5V157.5ZM-146.517 160.5C-145.689 160.5 -145.017 159.828 -145.017 159C-145.017 158.172 -145.689 157.5 -146.517 157.5V160.5ZM-33.6875 160.5C-32.8591 160.5 -32.1875 159.828 -32.1875 159C-32.1875 158.172 -32.8591 157.5 -33.6875 157.5V160.5ZM24.5 222.6C24.5 223.428 25.1716 224.1 26 224.1C26.8284 224.1 27.5 223.428 27.5 222.6H24.5ZM27.5 349.8C27.5 348.972 26.8284 348.3 26 348.3C25.1716 348.3 24.5 348.972 24.5 349.8H27.5ZM24.5 477C24.5 477.828 25.1716 478.5 26 478.5C26.8284 478.5 27.5 477.828 27.5 477H24.5ZM27.5 604.2C27.5 603.372 26.8284 602.7 26 602.7C25.1716 602.7 24.5 603.372 24.5 604.2H27.5ZM24.5 731.4C24.5 732.228 25.1716 732.9 26 732.9C26.8284 732.9 27.5 732.228 27.5 731.4H24.5ZM-25.0382 793.5C-25.8666 793.5 -26.5382 794.172 -26.5382 795C-26.5382 795.828 -25.8666 796.5 -25.0382 796.5V793.5ZM-127.115 796.5C-126.286 796.5 -125.615 795.828 -125.615 795C-125.615 794.172 -126.286 793.5 -127.115 793.5V796.5ZM-229.191 793.5C-230.019 793.5 -230.691 794.172 -230.691 795C-230.691 795.828 -230.019 796.5 -229.191 796.5V793.5ZM-312.115 793.5C-312.943 793.5 -313.615 794.172 -313.615 795C-313.615 795.828 -312.943 796.5 -312.115 796.5V793.5ZM-345.5 832.901C-345.5 833.73 -344.828 834.401 -344 834.401C-343.172 834.401 -342.5 833.73 -342.5 832.901H-345.5ZM-312 869.862C-311.174 869.799 -310.556 869.078 -310.619 868.252C-310.682 867.426 -311.403 866.807 -312.229 866.87L-312 869.862ZM-219.375 858.662C-218.554 858.552 -217.977 857.798 -218.086 856.977C-218.196 856.155 -218.95 855.578 -219.771 855.688L-219.375 858.662ZM-97.799 842.446C-98.6247 842.514 -99.2393 843.238 -99.1717 844.063C-99.1042 844.889 -98.3801 845.504 -97.5544 845.436L-97.799 842.446ZM24.6286 839.3C25.4569 839.286 26.1177 838.604 26.1045 837.776C26.0913 836.948 25.4091 836.287 24.5808 836.3L24.6286 839.3ZM147.22 839.287C146.394 839.231 145.678 839.856 145.622 840.683C145.567 841.509 146.191 842.225 147.018 842.28L147.22 839.287ZM268.565 856.022C269.383 856.149 270.15 855.589 270.278 854.77C270.405 853.952 269.845 853.185 269.027 853.057L268.565 856.022ZM374.843 874.047C375.661 874.176 376.429 873.617 376.557 872.798C376.686 871.98 376.127 871.212 375.308 871.084L374.843 874.047ZM484.817 884.465C485.643 884.517 486.356 883.89 486.408 883.063C486.461 882.236 485.833 881.523 485.006 881.471L484.817 884.465ZM612.468 887.167C611.64 887.146 610.952 887.8 610.93 888.629C610.909 889.457 611.563 890.145 612.392 890.166L612.468 887.167ZM740.097 890.812C740.925 890.799 741.586 890.117 741.573 889.289C741.559 888.46 740.877 887.799 740.049 887.813L740.097 890.812ZM868.043 885.605C868.87 885.551 869.496 884.836 869.442 884.01C869.387 883.183 868.673 882.557 867.846 882.612L868.043 885.605ZM995.616 871.413C994.792 871.502 994.197 872.242 994.286 873.066C994.376 873.89 995.116 874.485 995.939 874.396L995.616 871.413ZM1123.29 858.189C1124.11 858.07 1124.68 857.309 1124.56 856.489C1124.44 855.669 1123.68 855.101 1122.86 855.22L1123.29 858.189ZM1250.01 839.374C1250.83 839.272 1251.42 838.522 1251.31 837.7C1251.21 836.878 1250.46 836.295 1249.64 836.397L1250.01 839.374ZM1377.2 825.728C1376.37 825.765 1375.73 826.466 1375.76 827.294C1375.8 828.122 1376.5 828.762 1377.33 828.725L1377.2 825.728ZM1505.12 826.516C1505.95 826.519 1506.62 825.849 1506.63 825.021C1506.63 824.193 1505.96 823.519 1505.13 823.516L1505.12 826.516ZM1630.83 829.232C1631.66 829.276 1632.36 828.641 1632.41 827.814C1632.45 826.986 1631.82 826.28 1630.99 826.236L1630.83 829.232ZM1754.33 835.957C1753.51 835.874 1752.77 836.476 1752.69 837.3C1752.61 838.124 1753.21 838.859 1754.03 838.942L1754.33 835.957ZM1876.86 853.335C1877.68 853.444 1878.43 852.867 1878.54 852.045C1878.65 851.224 1878.07 850.47 1877.25 850.361L1876.86 853.335ZM2003.45 873.185C2004.27 873.317 2005.04 872.761 2005.17 871.943C2005.31 871.126 2004.75 870.356 2003.93 870.223L2003.45 873.185ZM2135.64 889.206C2134.82 889.103 2134.07 889.686 2133.97 890.508C2133.86 891.331 2134.45 892.08 2135.27 892.183L2135.64 889.206ZM2267.83 905.163C2268.66 905.215 2269.37 904.587 2269.42 903.76C2269.48 902.934 2268.85 902.221 2268.02 902.169L2267.83 905.163ZM2400.17 906.241C2401 906.207 2401.64 905.508 2401.61 904.681C2401.57 903.853 2400.87 903.21 2400.05 903.244L2400.17 906.241ZM2530.66 891.177C2529.84 891.301 2529.27 892.064 2529.4 892.884C2529.52 893.703 2530.28 894.267 2531.1 894.144L2530.66 891.177ZM2659.16 864.526C2659.94 864.26 2660.36 863.409 2660.1 862.624C2659.83 861.84 2658.98 861.419 2658.19 861.685L2659.16 864.526ZM2718.5 814.763C2718.5 813.934 2717.83 813.263 2717 813.263C2716.17 813.263 2715.5 813.934 2715.5 814.763H2718.5ZM2685.11 793.5C2684.29 793.5 2683.61 794.172 2683.61 795C2683.61 795.828 2684.29 796.5 2685.11 796.5V793.5ZM2600.09 793.5C2599.26 793.5 2598.59 794.172 2598.59 795C2598.59 795.828 2599.26 796.5 2600.09 796.5V793.5ZM2493.8 796.5C2494.63 796.5 2495.3 795.828 2495.3 795C2495.3 794.172 2494.63 793.5 2493.8 793.5V796.5ZM2387.52 793.5C2386.69 793.5 2386.02 794.172 2386.02 795C2386.02 795.828 2386.69 796.5 2387.52 796.5V793.5ZM2289.03 793.5C2288.2 793.5 2287.53 794.172 2287.53 795C2287.53 795.828 2288.2 796.5 2289.03 796.5V793.5ZM2198.34 796.5C2199.17 796.5 2199.84 795.828 2199.84 795C2199.84 794.172 2199.17 793.5 2198.34 793.5V796.5ZM2154.5 731.4C2154.5 730.572 2153.83 729.9 2153 729.9C2152.17 729.9 2151.5 730.572 2151.5 731.4H2154.5ZM2151.5 604.2C2151.5 605.028 2152.17 605.7 2153 605.7C2153.83 605.7 2154.5 605.028 2154.5 604.2H2151.5ZM2154.5 477C2154.5 476.172 2153.83 475.5 2153 475.5C2152.17 475.5 2151.5 476.172 2151.5 477H2154.5ZM2151.5 349.8C2151.5 350.628 2152.17 351.3 2153 351.3C2153.83 351.3 2154.5 350.628 2154.5 349.8H2151.5ZM2154.5 222.6C2154.5 221.772 2153.83 221.1 2153 221.1C2152.17 221.1 2151.5 221.772 2151.5 222.6H2154.5ZM2177.69 160.5C2178.52 160.5 2179.19 159.828 2179.19 159C2179.19 158.172 2178.52 157.5 2177.69 157.5V160.5ZM2255.52 160.5C2256.35 160.5 2257.02 159.828 2257.02 159C2257.02 158.172 2256.35 157.5 2255.52 157.5V160.5ZM2361.8 157.5C2360.97 157.5 2360.3 158.172 2360.3 159C2360.3 159.828 2360.97 160.5 2361.8 160.5V157.5ZM2468.09 160.5C2468.92 160.5 2469.59 159.828 2469.59 159C2469.59 158.172 2468.92 157.5 2468.09 157.5V160.5ZM2553.11 160.5C2553.94 160.5 2554.61 159.828 2554.61 159C2554.61 158.172 2553.94 157.5 2553.11 157.5V160.5ZM2586.5 121.099C2586.5 120.27 2585.83 119.599 2585 119.599C2584.17 119.599 2583.5 120.27 2583.5 121.099H2586.5ZM2553 84.1383C2552.17 84.2014 2551.56 84.9222 2551.62 85.7482C2551.68 86.5743 2552.4 87.1927 2553.23 87.1296L2553 84.1383ZM2460.37 95.3383C2459.55 95.4478 2458.98 96.2022 2459.09 97.0234C2459.2 97.8446 2459.95 98.4215 2460.77 98.312L2460.37 95.3383ZM2338.8 111.554C2339.62 111.486 2340.24 110.762 2340.17 109.937C2340.1 109.111 2339.38 108.496 2338.55 108.564L2338.8 111.554ZM2216.37 114.7C2215.54 114.714 2214.88 115.396 2214.9 116.224C2214.91 117.052 2215.59 117.713 2216.42 117.7L2216.37 114.7ZM2093.78 114.713C2094.61 114.769 2095.32 114.144 2095.38 113.317C2095.43 112.491 2094.81 111.775 2093.98 111.72L2093.78 114.713ZM1972.44 97.9783C1971.62 97.8508 1970.85 98.411 1970.72 99.2295C1970.59 100.048 1971.15 100.815 1971.97 100.943L1972.44 97.9783ZM1866.16 79.9527C1865.34 79.8242 1864.57 80.3835 1864.44 81.2019C1864.31 82.0203 1864.87 82.7879 1865.69 82.9164L1866.16 79.9527ZM1756.18 69.5348C1755.36 69.4825 1754.64 70.1104 1754.59 70.9372C1754.54 71.7639 1755.17 72.4766 1755.99 72.5288L1756.18 69.5348ZM1628.53 66.8326C1629.36 66.8537 1630.05 66.1995 1630.07 65.3713C1630.09 64.5432 1629.44 63.8547 1628.61 63.8336L1628.53 66.8326ZM1500.9 63.1877C1500.07 63.2009 1499.41 63.8832 1499.43 64.7115C1499.44 65.5398 1500.12 66.2006 1500.95 66.1873L1500.9 63.1877ZM1372.96 68.3948C1372.13 68.4493 1371.5 69.1635 1371.56 69.9902C1371.61 70.8168 1372.33 71.4428 1373.15 71.3883L1372.96 68.3948ZM1245.38 82.5868C1246.21 82.4975 1246.8 81.7575 1246.71 80.9339C1246.62 80.1103 1245.88 79.515 1245.06 79.6043L1245.38 82.5868ZM1117.71 95.8108C1116.89 95.9298 1116.32 96.6908 1116.44 97.5107C1116.56 98.3305 1117.32 98.8987 1118.14 98.7797L1117.71 95.8108ZM990.99 114.626C990.168 114.728 989.584 115.478 989.687 116.3C989.789 117.122 990.539 117.705 991.361 117.603L990.99 114.626ZM863.804 128.272C864.632 128.235 865.273 127.534 865.236 126.706C865.199 125.878 864.498 125.238 863.67 125.275L863.804 128.272ZM735.878 127.484C735.049 127.481 734.376 128.151 734.373 128.979C734.37 129.807 735.04 130.481 735.868 130.484L735.878 127.484ZM610.169 124.768C609.341 124.724 608.635 125.359 608.591 126.186C608.548 127.014 609.183 127.72 610.01 127.764L610.169 124.768ZM486.666 118.043C487.49 118.126 488.225 117.524 488.308 116.7C488.391 115.876 487.79 115.141 486.965 115.058L486.666 118.043ZM364.144 100.665C363.322 100.556 362.568 101.133 362.459 101.955C362.35 102.776 362.927 103.53 363.748 103.639L364.144 100.665ZM237.547 80.8149C236.729 80.6828 235.959 81.2387 235.827 82.0565C235.695 82.8743 236.251 83.6444 237.069 83.7765L237.547 80.8149ZM105.36 64.7938C106.182 64.8966 106.932 64.3136 107.035 63.4915C107.138 62.6695 106.555 61.9198 105.733 61.817L105.36 64.7938ZM-26.8326 48.8373C-27.6594 48.785 -28.372 49.4129 -28.4243 50.2397C-28.4765 51.0664 -27.8487 51.779 -27.0219 51.8313L-26.8326 48.8373ZM-159.17 47.7588C-159.997 47.7929 -160.641 48.4915 -160.607 49.3192C-160.573 50.1469 -159.874 50.7903 -159.046 50.7563L-159.17 47.7588ZM-289.656 62.8226C-288.836 62.6994 -288.272 61.9355 -288.395 61.1163C-288.518 60.2971 -289.282 59.7328 -290.102 59.8559L-289.656 62.8226ZM-418.157 89.4736C-418.941 89.7395 -419.362 90.5911 -419.096 91.3757C-418.83 92.1603 -417.979 92.5808 -417.194 92.3149L-418.157 89.4736ZM-477.5 119.474V139.237H-474.5V119.474H-477.5ZM-476 160.5H-444.115V157.5H-476V160.5ZM-412.229 160.5H-359.087V157.5H-412.229V160.5ZM-252.802 160.5H-146.517V157.5H-252.802V160.5ZM-93.375 160.5H-33.6875V157.5H-93.375V160.5ZM24.5 159V222.6H27.5V159H24.5ZM24.5 349.8V477H27.5V349.8H24.5ZM24.5 604.2V731.4H27.5V604.2H24.5ZM26 793.5H-25.0382V796.5H26V793.5ZM-127.115 793.5H-229.191V796.5H-127.115V793.5ZM-280.229 793.5H-312.115V796.5H-280.229V793.5ZM-345.5 795V832.901H-342.5V795H-345.5ZM-343.886 872.298L-312 869.862L-312.229 866.87L-344.114 869.307L-343.886 872.298ZM-280 867.412C-259.139 864.18 -238.941 861.27 -219.375 858.662L-219.771 855.688C-239.359 858.3 -259.578 861.212 -280.459 864.447L-280 867.412ZM-97.5544 845.436C-53.088 841.799 -12.5418 839.892 24.6286 839.3L24.5808 836.3C-12.6577 836.893 -53.2696 838.804 -97.799 842.446L-97.5544 845.436ZM147.018 842.28C193.439 845.416 233.262 850.522 268.565 856.022L269.027 853.057C233.66 847.547 193.747 842.43 147.22 839.287L147.018 842.28ZM328.924 866.227C345.022 869.069 360.232 871.753 374.843 874.047L375.308 871.084C360.731 868.795 345.549 866.115 329.445 863.273L328.924 866.227ZM421.129 879.878C442.358 881.59 463.587 883.123 484.817 884.465L485.006 881.471C463.794 880.13 442.583 878.599 421.371 876.888L421.129 879.878ZM612.392 890.166C654.959 891.252 697.527 891.495 740.097 890.812L740.049 887.813C697.523 888.494 654.996 888.252 612.468 887.167L612.392 890.166ZM803.939 889.086C825.307 888.179 846.676 887.014 868.043 885.605L867.846 882.612C846.501 884.019 825.156 885.183 803.811 886.089L803.939 889.086ZM995.939 874.396C1038.39 869.792 1080.84 864.35 1123.29 858.189L1122.86 855.22C1080.44 861.377 1038.03 866.814 995.616 871.413L995.939 874.396ZM1186.74 848.46C1208.59 844.935 1229.52 841.928 1250.01 839.374L1249.64 836.397C1229.11 838.955 1208.14 841.968 1186.26 845.498L1186.74 848.46ZM1377.33 828.725C1416.85 826.958 1458.36 826.367 1505.12 826.516L1505.13 823.516C1458.34 823.367 1416.78 823.958 1377.2 825.728L1377.33 828.725ZM1569.1 827.092C1589.03 827.364 1609.78 828.119 1630.83 829.232L1630.99 826.236C1609.91 825.122 1589.12 824.365 1569.15 824.092L1569.1 827.092ZM1754.03 838.942C1801.07 843.667 1844.2 848.993 1876.86 853.335L1877.25 850.361C1844.57 846.016 1801.41 840.686 1754.33 835.957L1754.03 838.942ZM1938.2 860.515C1937.93 861.99 1937.93 861.99 1937.93 861.99C1937.93 861.99 1937.93 861.99 1937.93 861.99C1937.93 861.99 1937.93 861.991 1937.93 861.991C1937.93 861.991 1937.94 861.992 1937.94 861.994C1937.96 861.996 1937.98 861.999 1938 862.004C1938.05 862.013 1938.13 862.027 1938.23 862.045C1938.42 862.082 1938.72 862.136 1939.11 862.207C1939.89 862.35 1941.05 862.561 1942.57 862.835C1945.6 863.381 1950.05 864.177 1955.75 865.174C1967.15 867.168 1983.53 869.967 2003.45 873.185L2003.93 870.223C1984.02 867.007 1967.66 864.211 1956.27 862.219C1950.57 861.223 1946.12 860.428 1943.1 859.882C1941.58 859.609 1940.43 859.399 1939.65 859.256C1939.26 859.185 1938.97 859.131 1938.77 859.095C1938.67 859.077 1938.6 859.063 1938.55 859.054C1938.52 859.049 1938.5 859.046 1938.49 859.044C1938.48 859.042 1938.48 859.042 1938.48 859.041C1938.47 859.041 1938.47 859.041 1938.47 859.04C1938.47 859.04 1938.47 859.04 1938.47 859.04C1938.47 859.04 1938.47 859.04 1938.2 860.515ZM2135.27 892.183C2178.87 897.635 2224.88 902.448 2267.83 905.163L2268.02 902.169C2225.15 899.459 2179.21 894.653 2135.64 889.206L2135.27 892.183ZM2334.37 907.497C2357.4 907.544 2379.33 907.099 2400.17 906.241L2400.05 903.244C2379.25 904.099 2357.37 904.544 2334.38 904.497L2334.37 907.497ZM2531.1 894.144C2586.38 885.836 2628.81 874.81 2659.16 864.526L2658.19 861.685C2628.03 871.906 2585.77 882.893 2530.66 891.177L2531.1 894.144ZM2718.5 834.526V814.763H2715.5V834.526H2718.5ZM2717 793.5H2685.11V796.5H2717V793.5ZM2653.23 793.5H2600.09V796.5H2653.23V793.5ZM2493.8 793.5H2387.52V796.5H2493.8V793.5ZM2334.38 793.5H2289.03V796.5H2334.38V793.5ZM2198.34 793.5H2153V796.5H2198.34V793.5ZM2154.5 795V731.4H2151.5V795H2154.5ZM2154.5 604.2V477H2151.5V604.2H2154.5ZM2154.5 349.8V222.6H2151.5V349.8H2154.5ZM2153 160.5H2177.69V157.5H2153V160.5ZM2202.38 160.5H2255.52V157.5H2202.38V160.5ZM2361.8 160.5H2468.09V157.5H2361.8V160.5ZM2521.23 160.5H2553.11V157.5H2521.23V160.5ZM2586.5 159V121.099H2583.5V159H2586.5ZM2584.89 81.7018L2553 84.1383L2553.23 87.1296L2585.11 84.6931L2584.89 81.7018ZM2521 86.5882C2500.14 89.8204 2479.94 92.7296 2460.37 95.3383L2460.77 98.312C2480.36 95.7004 2500.58 92.7882 2521.46 89.5528L2521 86.5882ZM2338.55 108.564C2294.09 112.201 2253.54 114.108 2216.37 114.7L2216.42 117.7C2253.66 117.107 2294.27 115.196 2338.8 111.554L2338.55 108.564ZM2093.98 111.72C2047.56 108.584 2007.74 103.478 1972.44 97.9783L1971.97 100.943C2007.34 106.453 2047.25 111.57 2093.78 114.713L2093.98 111.72ZM1912.08 87.773C1895.98 84.9315 1880.77 82.2466 1866.16 79.9527L1865.69 82.9164C1880.27 85.2051 1895.45 87.8848 1911.55 90.7274L1912.08 87.773ZM1819.87 74.122C1798.64 72.4097 1777.41 70.8773 1756.18 69.5348L1755.99 72.5288C1777.21 73.8702 1798.42 75.4014 1819.63 77.1123L1819.87 74.122ZM1628.61 63.8336C1586.04 62.7476 1543.47 62.5054 1500.9 63.1877L1500.95 66.1873C1543.48 65.5057 1586 65.7476 1628.53 66.8326L1628.61 63.8336ZM1437.06 64.9139C1415.69 65.8211 1394.32 66.9865 1372.96 68.3948L1373.15 71.3883C1394.5 69.9815 1415.84 68.8174 1437.19 67.9112L1437.06 64.9139ZM1245.06 79.6043C1202.61 84.2077 1160.16 89.6498 1117.71 95.8108L1118.14 98.7797C1160.56 92.6234 1202.97 87.186 1245.38 82.5868L1245.06 79.6043ZM1054.26 105.54C1032.41 109.065 1011.48 112.072 990.99 114.626L991.361 117.603C1011.89 115.045 1032.86 112.032 1054.74 108.502L1054.26 105.54ZM863.67 125.275C824.146 127.042 782.641 127.633 735.878 127.484L735.868 130.484C782.661 130.633 824.216 130.042 863.804 128.272L863.67 125.275ZM671.896 126.908C651.969 126.636 631.22 125.881 610.169 124.768L610.01 127.764C631.093 128.878 651.882 129.635 671.854 129.908L671.896 126.908ZM486.965 115.058C439.926 110.333 396.798 105.007 364.144 100.665L363.748 103.639C396.426 107.984 439.587 113.314 486.666 118.043L486.965 115.058ZM302.801 93.4849C303.075 92.01 303.074 92.01 303.074 92.01C303.074 92.0099 303.074 92.0099 303.073 92.0098C303.072 92.0096 303.071 92.0094 303.07 92.0091C303.066 92.0085 303.062 92.0076 303.055 92.0065C303.043 92.0041 303.024 92.0007 302.999 91.996C302.949 91.9868 302.874 91.973 302.775 91.9548C302.577 91.9183 302.281 91.8639 301.891 91.7925C301.11 91.6498 299.95 91.4387 298.435 91.1653C295.404 90.6186 290.949 89.8227 285.248 88.8257C273.848 86.8318 257.468 84.0334 237.547 80.8149L237.069 83.7765C256.975 86.9927 273.342 89.7889 284.731 91.7809C290.426 92.7769 294.876 93.5718 297.902 94.1177C299.415 94.3906 300.572 94.6012 301.351 94.7436C301.74 94.8148 302.035 94.8689 302.232 94.9052C302.33 94.9233 302.405 94.937 302.454 94.9462C302.479 94.9507 302.497 94.9542 302.51 94.9564C302.516 94.9576 302.521 94.9584 302.524 94.959C302.525 94.9593 302.526 94.9595 302.527 94.9596C302.527 94.9597 302.528 94.9598 302.528 94.9598C302.528 94.9598 302.528 94.9598 302.801 93.4849ZM105.733 61.817C62.1281 56.3651 16.1215 51.5523 -26.8326 48.8373L-27.0219 51.8313C15.8509 54.5412 61.7927 59.3466 105.36 64.7938L105.733 61.817ZM-93.3719 46.5034C-116.402 46.4561 -138.328 46.9014 -159.17 47.7588L-159.046 50.7563C-138.249 49.9006 -116.365 49.4562 -93.3781 49.5034L-93.3719 46.5034ZM-290.102 59.8559C-345.377 68.1644 -387.812 79.1902 -418.157 89.4736L-417.194 92.3149C-387.032 82.0935 -344.771 71.1071 -289.656 62.8226L-290.102 59.8559ZM-473 119.474C-473 117.818 -474.343 116.474 -476 116.474C-477.657 116.474 -479 117.818 -479 119.474H-473ZM-93.3812 51.0034C-91.7243 51.0068 -90.3784 49.6664 -90.375 48.0096C-90.3716 46.3527 -91.712 45.0068 -93.3688 45.0034L-93.3812 51.0034ZM-476 156C-477.657 156 -479 157.343 -479 159C-479 160.657 -477.657 162 -476 162V156ZM-412.229 156C-413.886 156 -415.229 157.343 -415.229 159C-415.229 160.657 -413.886 162 -412.229 162V156ZM-93.375 156C-95.0319 156 -96.375 157.343 -96.375 159C-96.375 160.657 -95.0319 162 -93.375 162V156ZM29 159C29 157.343 27.6569 156 26 156C24.3431 156 23 157.343 23 159H29ZM26 798C27.6569 798 29 796.657 29 795C29 793.343 27.6569 792 26 792V798ZM-280.229 798C-278.572 798 -277.229 796.657 -277.229 795C-277.229 793.343 -278.572 792 -280.229 792V798ZM-341 795C-341 793.343 -342.343 792 -344 792C-345.657 792 -347 793.343 -347 795H-341ZM-344.229 867.811C-345.881 867.937 -347.118 869.379 -346.991 871.031C-346.865 872.683 -345.423 873.92 -343.771 873.794L-344.229 867.811ZM-280.689 862.965C-282.326 863.219 -283.448 864.752 -283.194 866.389C-282.94 868.026 -281.407 869.148 -279.77 868.894L-280.689 862.965ZM329.706 861.795C328.074 861.508 326.518 862.597 326.23 864.228C325.942 865.86 327.031 867.416 328.663 867.704L329.706 861.795ZM421.491 875.393C419.84 875.259 418.393 876.49 418.26 878.142C418.127 879.793 419.357 881.24 421.009 881.373L421.491 875.393ZM803.748 884.59C802.092 884.66 800.807 886.059 800.878 887.715C800.948 889.37 802.347 890.655 804.002 890.585L803.748 884.59ZM1186.02 844.017C1184.39 844.281 1183.27 845.821 1183.54 847.457C1183.8 849.092 1185.34 850.204 1186.98 849.941L1186.02 844.017ZM1569.17 822.592C1567.51 822.569 1566.15 823.894 1566.13 825.551C1566.1 827.207 1567.43 828.569 1569.08 828.591L1569.17 822.592ZM1938.75 857.565C1937.12 857.263 1935.55 858.339 1935.25 859.969C1934.95 861.598 1936.02 863.163 1937.65 863.465L1938.75 857.565ZM2334.38 902.997C2332.72 902.993 2331.38 904.334 2331.38 905.99C2331.37 907.647 2332.71 908.993 2334.37 908.997L2334.38 902.997ZM2714 834.526C2714 836.182 2715.34 837.526 2717 837.526C2718.66 837.526 2720 836.182 2720 834.526H2714ZM2717 798C2718.66 798 2720 796.657 2720 795C2720 793.343 2718.66 792 2717 792V798ZM2653.23 798C2654.89 798 2656.23 796.657 2656.23 795C2656.23 793.343 2654.89 792 2653.23 792V798ZM2334.38 798C2336.03 798 2337.38 796.657 2337.38 795C2337.38 793.343 2336.03 792 2334.38 792V798ZM2153 795H2150V798H2153V795ZM2153 156C2151.34 156 2150 157.343 2150 159C2150 160.657 2151.34 162 2153 162V156ZM2202.38 156C2200.72 156 2199.38 157.343 2199.38 159C2199.38 160.657 2200.72 162 2202.38 162V156ZM2521.23 156C2519.57 156 2518.23 157.343 2518.23 159C2518.23 160.657 2519.57 162 2521.23 162V156ZM2582 159C2582 160.657 2583.34 162 2585 162C2586.66 162 2588 160.657 2588 159H2582ZM2585.23 86.1887C2586.88 86.0625 2588.12 84.6209 2587.99 82.9689C2587.86 81.3168 2586.42 80.0799 2584.77 80.2062L2585.23 86.1887ZM2521.69 91.0351C2523.33 90.7814 2524.45 89.2484 2524.19 87.6111C2523.94 85.9738 2522.41 84.8521 2520.77 85.1058L2521.69 91.0351ZM1911.29 92.2045C1912.93 92.4925 1914.48 91.4033 1914.77 89.7717C1915.06 88.14 1913.97 86.5839 1912.34 86.2959L1911.29 92.2045ZM1819.51 78.6075C1821.16 78.7407 1822.61 77.5099 1822.74 75.8584C1822.87 74.2069 1821.64 72.7601 1819.99 72.6269L1819.51 78.6075ZM1437.25 69.4099C1438.91 69.3396 1440.19 67.9407 1440.12 66.2853C1440.05 64.63 1438.65 63.345 1437 63.4153L1437.25 69.4099ZM1054.98 109.983C1056.61 109.719 1057.73 108.179 1057.46 106.543C1057.2 104.908 1055.66 103.796 1054.02 104.059L1054.98 109.983ZM671.834 131.408C673.491 131.431 674.852 130.106 674.875 128.449C674.897 126.793 673.573 125.431 671.916 125.409L671.834 131.408ZM302.255 96.4347C303.884 96.7365 305.449 95.6605 305.751 94.0314C306.053 92.4022 304.977 90.8369 303.348 90.5351L302.255 96.4347ZM-479 139.237C-479 140.894 -477.657 142.237 -476 142.237C-474.343 142.237 -473 140.894 -473 139.237H-479ZM-444.115 162C-442.458 162 -441.115 160.657 -441.115 159C-441.115 157.343 -442.458 156 -444.115 156V162ZM-359.087 162C-357.43 162 -356.087 160.657 -356.087 159C-356.087 157.343 -357.43 156 -359.087 156V162ZM-252.802 156C-254.459 156 -255.802 157.343 -255.802 159C-255.802 160.657 -254.459 162 -252.802 162V156ZM-146.517 162C-144.861 162 -143.517 160.657 -143.517 159C-143.517 157.343 -144.861 156 -146.517 156V162ZM-33.6875 162C-32.0306 162 -30.6875 160.657 -30.6875 159C-30.6875 157.343 -32.0306 156 -33.6875 156V162ZM23 222.6C23 224.257 24.3431 225.6 26 225.6C27.6569 225.6 29 224.257 29 222.6H23ZM29 349.8C29 348.143 27.6569 346.8 26 346.8C24.3431 346.8 23 348.143 23 349.8H29ZM23 477C23 478.657 24.3431 480 26 480C27.6569 480 29 478.657 29 477H23ZM29 604.2C29 602.543 27.6569 601.2 26 601.2C24.3431 601.2 23 602.543 23 604.2H29ZM23 731.4C23 733.057 24.3431 734.4 26 734.4C27.6569 734.4 29 733.057 29 731.4H23ZM-25.0382 792C-26.6951 792 -28.0382 793.343 -28.0382 795C-28.0382 796.657 -26.6951 798 -25.0382 798V792ZM-127.115 798C-125.458 798 -124.115 796.657 -124.115 795C-124.115 793.343 -125.458 792 -127.115 792V798ZM-229.191 792C-230.848 792 -232.191 793.343 -232.191 795C-232.191 796.657 -230.848 798 -229.191 798V792ZM-312.115 792C-313.771 792 -315.115 793.343 -315.115 795C-315.115 796.657 -313.771 798 -312.115 798V792ZM-347 832.901C-347 834.558 -345.657 835.901 -344 835.901C-342.343 835.901 -341 834.558 -341 832.901H-347ZM-311.886 871.357C-310.234 871.231 -308.997 869.789 -309.123 868.137C-309.25 866.485 -310.691 865.249 -312.343 865.375L-311.886 871.357ZM-219.177 860.148C-217.534 859.93 -216.38 858.421 -216.599 856.778C-216.818 855.136 -218.327 853.982 -219.97 854.201L-219.177 860.148ZM-97.9213 840.951C-99.5726 841.086 -100.802 842.534 -100.667 844.186C-100.532 845.837 -99.0835 847.066 -97.4322 846.931L-97.9213 840.951ZM24.6525 840.799C26.3091 840.773 27.6307 839.409 27.6043 837.752C27.5779 836.095 26.2136 834.774 24.5569 834.8L24.6525 840.799ZM147.321 837.791C145.668 837.679 144.237 838.929 144.126 840.582C144.014 842.235 145.264 843.665 146.917 843.777L147.321 837.791ZM268.334 857.504C269.971 857.759 271.505 856.638 271.76 855.001C272.015 853.364 270.895 851.83 269.258 851.575L268.334 857.504ZM374.61 875.529C376.247 875.786 377.782 874.668 378.039 873.031C378.296 871.394 377.178 869.859 375.541 869.602L374.61 875.529ZM484.722 885.962C486.376 886.067 487.801 884.811 487.905 883.157C488.01 881.504 486.754 880.079 485.101 879.974L484.722 885.962ZM612.506 885.668C610.85 885.626 609.473 886.934 609.431 888.59C609.389 890.247 610.697 891.624 612.353 891.666L612.506 885.668ZM740.121 892.312C741.777 892.286 743.099 890.921 743.072 889.264C743.046 887.608 741.681 886.286 740.025 886.313L740.121 892.312ZM868.142 887.102C869.795 886.993 871.047 885.564 870.938 883.911C870.829 882.258 869.401 881.006 867.747 881.115L868.142 887.102ZM995.454 869.922C993.807 870.101 992.616 871.581 992.795 873.228C992.974 874.875 994.454 876.066 996.101 875.887L995.454 869.922ZM1123.51 859.674C1125.15 859.436 1126.28 857.914 1126.04 856.274C1125.81 854.634 1124.28 853.498 1122.64 853.736L1123.51 859.674ZM1250.2 840.863C1251.84 840.658 1253.01 839.159 1252.8 837.515C1252.6 835.871 1251.1 834.704 1249.45 834.909L1250.2 840.863ZM1377.13 824.23C1375.47 824.304 1374.19 825.706 1374.27 827.361C1374.34 829.016 1375.74 830.298 1377.4 830.224L1377.13 824.23ZM1505.12 828.016C1506.77 828.021 1508.12 826.683 1508.13 825.026C1508.13 823.369 1506.79 822.021 1505.14 822.016L1505.12 828.016ZM1630.75 830.73C1632.41 830.818 1633.82 829.547 1633.91 827.893C1633.99 826.238 1632.72 824.826 1631.07 824.739L1630.75 830.73ZM1754.48 834.465C1752.84 834.299 1751.36 835.501 1751.2 837.15C1751.03 838.798 1752.24 840.269 1753.88 840.435L1754.48 834.465ZM1876.66 854.822C1878.3 855.04 1879.81 853.885 1880.03 852.243C1880.25 850.601 1879.09 849.092 1877.45 848.874L1876.66 854.822ZM2003.21 874.666C2004.85 874.93 2006.39 873.818 2006.65 872.183C2006.92 870.547 2005.81 869.007 2004.17 868.743L2003.21 874.666ZM2135.83 887.718C2134.18 887.512 2132.68 888.678 2132.48 890.322C2132.27 891.966 2133.44 893.466 2135.08 893.671L2135.83 887.718ZM2267.74 906.66C2269.39 906.764 2270.82 905.508 2270.92 903.855C2271.03 902.201 2269.77 900.776 2268.12 900.672L2267.74 906.66ZM2400.23 907.74C2401.89 907.672 2403.17 906.275 2403.11 904.619C2403.04 902.964 2401.64 901.677 2399.98 901.745L2400.23 907.74ZM2530.43 889.694C2528.79 889.94 2527.67 891.468 2527.91 893.107C2528.16 894.745 2529.69 895.874 2531.32 895.627L2530.43 889.694ZM2659.64 865.947C2661.21 865.415 2662.05 863.712 2661.52 862.143C2660.98 860.574 2659.28 859.733 2657.71 860.264L2659.64 865.947ZM2720 814.763C2720 813.106 2718.66 811.763 2717 811.763C2715.34 811.763 2714 813.106 2714 814.763H2720ZM2685.11 792C2683.46 792 2682.11 793.343 2682.11 795C2682.11 796.657 2683.46 798 2685.11 798V792ZM2600.09 792C2598.43 792 2597.09 793.343 2597.09 795C2597.09 796.657 2598.43 798 2600.09 798V792ZM2493.8 798C2495.46 798 2496.8 796.657 2496.8 795C2496.8 793.343 2495.46 792 2493.8 792V798ZM2387.52 792C2385.86 792 2384.52 793.343 2384.52 795C2384.52 796.657 2385.86 798 2387.52 798V792ZM2289.03 792C2287.37 792 2286.03 793.343 2286.03 795C2286.03 796.657 2287.37 798 2289.03 798V792ZM2198.34 798C2200 798 2201.34 796.657 2201.34 795C2201.34 793.343 2200 792 2198.34 792V798ZM2156 731.4C2156 729.743 2154.66 728.4 2153 728.4C2151.34 728.4 2150 729.743 2150 731.4H2156ZM2150 604.2C2150 605.857 2151.34 607.2 2153 607.2C2154.66 607.2 2156 605.857 2156 604.2H2150ZM2156 477C2156 475.343 2154.66 474 2153 474C2151.34 474 2150 475.343 2150 477H2156ZM2150 349.8C2150 351.457 2151.34 352.8 2153 352.8C2154.66 352.8 2156 351.457 2156 349.8H2150ZM2156 222.6C2156 220.943 2154.66 219.6 2153 219.6C2151.34 219.6 2150 220.943 2150 222.6H2156ZM2177.69 162C2179.34 162 2180.69 160.657 2180.69 159C2180.69 157.343 2179.34 156 2177.69 156V162ZM2255.52 162C2257.17 162 2258.52 160.657 2258.52 159C2258.52 157.343 2257.17 156 2255.52 156V162ZM2361.8 156C2360.15 156 2358.8 157.343 2358.8 159C2358.8 160.657 2360.15 162 2361.8 162V156ZM2468.09 162C2469.74 162 2471.09 160.657 2471.09 159C2471.09 157.343 2469.74 156 2468.09 156V162ZM2553.11 162C2554.77 162 2556.11 160.657 2556.11 159C2556.11 157.343 2554.77 156 2553.11 156V162ZM2588 121.099C2588 119.442 2586.66 118.099 2585 118.099C2583.34 118.099 2582 119.442 2582 121.099H2588ZM2552.89 82.6427C2551.23 82.7689 2550 84.2105 2550.12 85.8625C2550.25 87.5146 2551.69 88.7515 2553.34 88.6252L2552.89 82.6427ZM2460.18 93.8515C2458.53 94.0705 2457.38 95.5793 2457.6 97.2216C2457.82 98.864 2459.33 100.018 2460.97 99.7989L2460.18 93.8515ZM2338.92 113.049C2340.57 112.914 2341.8 111.466 2341.67 109.814C2341.53 108.163 2340.08 106.934 2338.43 107.069L2338.92 113.049ZM2216.35 113.201C2214.69 113.227 2213.37 114.591 2213.4 116.248C2213.42 117.905 2214.79 119.226 2216.44 119.2L2216.35 113.201ZM2093.68 116.209C2095.33 116.321 2096.76 115.071 2096.87 113.418C2096.99 111.765 2095.74 110.335 2094.08 110.223L2093.68 116.209ZM1972.67 96.4962C1971.03 96.2411 1969.49 97.3615 1969.24 98.9986C1968.98 100.636 1970.11 102.17 1971.74 102.425L1972.67 96.4962ZM1866.39 78.4709C1864.75 78.2139 1863.22 79.3324 1862.96 80.9692C1862.7 82.606 1863.82 84.1413 1865.46 84.3982L1866.39 78.4709ZM1756.28 68.0378C1754.62 67.9333 1753.2 69.189 1753.09 70.8425C1752.99 72.4961 1754.25 73.9213 1755.9 74.0259L1756.28 68.0378ZM1628.49 68.3321C1630.15 68.3744 1631.53 67.0659 1631.57 65.4096C1631.61 63.7533 1630.3 62.3763 1628.65 62.3341L1628.49 68.3321ZM1500.88 61.6879C1499.22 61.7144 1497.9 63.0789 1497.93 64.7356C1497.95 66.3922 1499.32 67.7136 1500.98 67.6871L1500.88 61.6879ZM1372.86 66.898C1371.2 67.007 1369.95 68.4355 1370.06 70.0888C1370.17 71.7421 1371.6 72.994 1373.25 72.885L1372.86 66.898ZM1245.55 84.0781C1247.19 83.8995 1248.38 82.4194 1248.2 80.7722C1248.03 79.125 1246.55 77.9344 1244.9 78.1131L1245.55 84.0781ZM1117.49 94.3263C1115.85 94.5643 1114.72 96.0864 1114.96 97.7261C1115.19 99.3658 1116.72 100.502 1118.36 100.264L1117.49 94.3263ZM990.804 113.137C989.16 113.342 987.993 114.841 988.198 116.485C988.403 118.129 989.902 119.296 991.546 119.091L990.804 113.137ZM863.871 129.77C865.526 129.696 866.808 128.294 866.734 126.639C866.66 124.984 865.258 123.702 863.603 123.776L863.871 129.77ZM735.883 125.984C734.226 125.979 732.878 127.317 732.873 128.974C732.868 130.631 734.207 131.978 735.863 131.984L735.883 125.984ZM610.248 123.27C608.593 123.182 607.181 124.453 607.094 126.107C607.006 127.762 608.276 129.174 609.931 129.261L610.248 123.27ZM486.516 119.535C488.164 119.701 489.635 118.499 489.801 116.85C489.966 115.202 488.764 113.731 487.115 113.565L486.516 119.535ZM364.341 99.1785C362.699 98.9601 361.19 100.114 360.972 101.757C360.754 103.399 361.908 104.908 363.55 105.126L364.341 99.1785ZM237.786 79.3341C236.151 79.0699 234.61 80.1816 234.346 81.8173C234.082 83.4529 235.194 84.9931 236.829 85.2573L237.786 79.3341ZM105.174 66.2823C106.818 66.4878 108.318 65.3217 108.523 63.6776C108.729 62.0336 107.563 60.5342 105.919 60.3286L105.174 66.2823ZM-26.738 47.3403C-28.3916 47.2357 -29.8168 48.4915 -29.9213 50.145C-30.0258 51.7986 -28.7701 53.2238 -27.1165 53.3283L-26.738 47.3403ZM-159.231 46.2601C-160.887 46.3282 -162.174 47.7254 -162.106 49.3809C-162.037 51.0363 -160.64 52.3231 -158.985 52.255L-159.231 46.2601ZM-289.433 64.3059C-287.794 64.0596 -286.666 62.5318 -286.912 60.8933C-287.158 59.2549 -288.686 58.1263 -290.325 58.3726L-289.433 64.3059ZM-418.638 88.053C-420.207 88.5847 -421.048 90.2879 -420.517 91.8571C-419.985 93.4263 -418.282 94.2673 -416.712 93.7355L-418.638 88.053ZM-479 119.474V139.237H-473V119.474H-479ZM-476 162H-444.115V156H-476V162ZM-412.229 162H-359.087V156H-412.229V162ZM-252.802 162H-146.517V156H-252.802V162ZM-93.375 162H-33.6875V156H-93.375V162ZM23 159V222.6H29V159H23ZM23 349.8V477H29V349.8H23ZM23 604.2V731.4H29V604.2H23ZM26 792H-25.0382V798H26V792ZM-127.115 792H-229.191V798H-127.115V792ZM-280.229 792H-312.115V798H-280.229V792ZM-347 795V832.901H-341V795H-347ZM-343.771 873.794L-311.886 871.357L-312.343 865.375L-344.229 867.811L-343.771 873.794ZM-279.77 868.894C-258.92 865.663 -238.732 862.756 -219.177 860.148L-219.97 854.201C-239.568 856.814 -259.797 859.728 -280.689 862.965L-279.77 868.894ZM-97.4322 846.931C-52.9972 843.297 -12.4838 841.391 24.6525 840.799L24.5569 834.8C-12.7157 835.394 -53.3604 837.306 -97.9213 840.951L-97.4322 846.931ZM146.917 843.777C193.284 846.909 233.063 852.009 268.334 857.504L269.258 851.575C233.859 846.06 193.902 840.937 147.321 837.791L146.917 843.777ZM328.663 867.704C344.758 870.545 359.983 873.233 374.61 875.529L375.541 869.602C360.98 867.316 345.813 864.639 329.706 861.795L328.663 867.704ZM421.009 881.373C442.246 883.086 463.484 884.619 484.722 885.962L485.101 879.974C463.898 878.633 442.695 877.103 421.491 875.393L421.009 881.373ZM612.353 891.666C654.941 892.752 697.53 892.995 740.121 892.312L740.025 886.313C697.521 886.994 655.014 886.752 612.506 885.668L612.353 891.666ZM804.002 890.585C825.383 889.677 846.763 888.511 868.142 887.102L867.747 881.115C846.413 882.521 825.08 883.684 803.748 884.59L804.002 890.585ZM996.101 875.887C1038.57 871.281 1081.04 865.837 1123.51 859.674L1122.64 853.736C1080.24 859.89 1037.85 865.325 995.454 869.922L996.101 875.887ZM1186.98 849.941C1208.81 846.419 1229.73 843.414 1250.2 840.863L1249.45 834.909C1228.91 837.469 1207.92 840.485 1186.02 844.017L1186.98 849.941ZM1377.4 830.224C1416.89 828.458 1458.37 827.867 1505.12 828.016L1505.14 822.016C1458.33 821.867 1416.75 822.458 1377.13 824.23L1377.4 830.224ZM1569.08 828.591C1588.99 828.863 1609.72 829.618 1630.75 830.73L1631.07 824.739C1609.97 823.623 1589.16 822.865 1569.17 822.592L1569.08 828.591ZM1753.88 840.435C1800.9 845.158 1844.02 850.481 1876.66 854.822L1877.45 848.874C1844.76 844.528 1801.58 839.196 1754.48 834.465L1753.88 840.435ZM1938.2 860.515C1937.65 863.465 1937.65 863.465 1937.65 863.465C1937.65 863.465 1937.65 863.465 1937.65 863.465C1937.65 863.465 1937.66 863.466 1937.66 863.466C1937.66 863.466 1937.67 863.467 1937.67 863.469C1937.68 863.471 1937.7 863.474 1937.73 863.479C1937.78 863.488 1937.85 863.502 1937.95 863.52C1938.15 863.557 1938.45 863.612 1938.84 863.683C1939.62 863.826 1940.78 864.037 1942.3 864.311C1945.33 864.858 1949.79 865.654 1955.49 866.652C1966.9 868.647 1983.29 871.446 2003.21 874.666L2004.17 868.743C1984.27 865.528 1967.91 862.733 1956.53 860.742C1950.84 859.746 1946.39 858.952 1943.36 858.406C1941.85 858.133 1940.7 857.923 1939.92 857.781C1939.53 857.71 1939.24 857.656 1939.04 857.62C1938.94 857.601 1938.87 857.588 1938.82 857.579C1938.79 857.574 1938.78 857.571 1938.76 857.569C1938.76 857.567 1938.75 857.567 1938.75 857.566C1938.75 857.566 1938.75 857.566 1938.75 857.565C1938.75 857.565 1938.75 857.565 1938.75 857.565C1938.75 857.565 1938.75 857.565 1938.2 860.515ZM2135.08 893.671C2178.7 899.126 2224.74 903.942 2267.74 906.66L2268.12 900.672C2225.28 897.964 2179.38 893.163 2135.83 887.718L2135.08 893.671ZM2334.37 908.997C2357.42 909.044 2379.37 908.598 2400.23 907.74L2399.98 901.745C2379.21 902.6 2357.35 903.044 2334.38 902.997L2334.37 908.997ZM2531.32 895.627C2586.68 887.307 2629.2 876.261 2659.64 865.947L2657.71 860.264C2627.64 870.455 2585.47 881.422 2530.43 889.694L2531.32 895.627ZM2720 834.526V814.763H2714V834.526H2720ZM2717 792H2685.11V798H2717V792ZM2653.23 792H2600.09V798H2653.23V792ZM2493.8 792H2387.52V798H2493.8V792ZM2334.38 792H2289.03V798H2334.38V792ZM2198.34 792H2153V798H2198.34V792ZM2156 795V731.4H2150V795H2156ZM2156 604.2V477H2150V604.2H2156ZM2156 349.8V222.6H2150V349.8H2156ZM2153 162H2177.69V156H2153V162ZM2202.38 162H2255.52V156H2202.38V162ZM2361.8 162H2468.09V156H2361.8V162ZM2521.23 162H2553.11V156H2521.23V162ZM2588 159V121.099H2582V159H2588ZM2584.77 80.2062L2552.89 82.6427L2553.34 88.6252L2585.23 86.1887L2584.77 80.2062ZM2520.77 85.1058C2499.92 88.3366 2479.73 91.2442 2460.18 93.8515L2460.97 99.7989C2480.57 97.1858 2500.8 94.2721 2521.69 91.0351L2520.77 85.1058ZM2338.43 107.069C2294 110.703 2253.48 112.609 2216.35 113.201L2216.44 119.2C2253.72 118.606 2294.36 116.694 2338.92 113.049L2338.43 107.069ZM2094.08 110.223C2047.72 107.091 2007.94 101.991 1972.67 96.4962L1971.74 102.425C2007.14 107.94 2047.1 113.063 2093.68 116.209L2094.08 110.223ZM1912.34 86.2959C1896.24 83.4548 1881.02 80.7674 1866.39 78.4709L1865.46 84.3982C1880.02 86.6843 1895.19 89.3614 1911.29 92.2045L1912.34 86.2959ZM1819.99 72.6269C1798.75 70.9139 1777.52 69.3809 1756.28 68.0378L1755.9 74.0259C1777.1 75.3667 1798.31 76.8972 1819.51 78.6075L1819.99 72.6269ZM1628.65 62.3341C1586.06 61.2475 1543.47 61.0053 1500.88 61.6879L1500.98 67.6871C1543.48 67.0059 1585.99 67.2476 1628.49 68.3321L1628.65 62.3341ZM1437 63.4153C1415.62 64.323 1394.24 65.489 1372.86 66.898L1373.25 72.885C1394.59 71.479 1415.92 70.3155 1437.25 69.4099L1437 63.4153ZM1244.9 78.1131C1202.43 82.7185 1159.96 88.163 1117.49 94.3263L1118.36 100.264C1160.76 94.1103 1203.15 88.6752 1245.55 84.0781L1244.9 78.1131ZM1054.02 104.059C1032.19 107.581 1011.27 110.586 990.804 113.137L991.546 119.091C1012.09 116.531 1033.08 113.515 1054.98 109.983L1054.02 104.059ZM863.603 123.776C824.11 125.542 782.631 126.133 735.883 125.984L735.863 131.984C782.671 132.133 824.252 131.542 863.871 129.77L863.603 123.776ZM671.916 125.409C652.013 125.137 631.283 124.382 610.248 123.27L609.931 129.261C631.029 130.377 651.838 131.135 671.834 131.408L671.916 125.409ZM487.115 113.565C440.096 108.842 396.985 103.519 364.341 99.1785L363.55 105.126C396.239 109.472 439.417 114.804 486.516 119.535L487.115 113.565ZM302.801 93.4849C303.348 90.5351 303.348 90.5351 303.347 90.535C303.347 90.535 303.347 90.5349 303.346 90.5349C303.346 90.5347 303.344 90.5345 303.343 90.5342C303.339 90.5336 303.335 90.5327 303.328 90.5315C303.315 90.5291 303.296 90.5256 303.271 90.521C303.221 90.5117 303.146 90.4978 303.047 90.4795C302.848 90.4429 302.551 90.3885 302.16 90.317C301.378 90.174 300.218 89.9627 298.701 89.6891C295.668 89.142 291.21 88.3456 285.507 87.3482C274.101 85.3533 257.714 82.5538 237.786 79.3341L236.829 85.2573C256.729 88.4723 273.089 91.2674 284.473 93.2585C290.165 94.254 294.613 95.0484 297.636 95.5938C299.148 95.8665 300.304 96.077 301.081 96.2191C301.47 96.2902 301.764 96.3442 301.96 96.3804C302.059 96.3985 302.132 96.4121 302.182 96.4212C302.206 96.4258 302.225 96.4292 302.237 96.4314C302.243 96.4326 302.248 96.4334 302.251 96.434C302.252 96.4342 302.253 96.4344 302.254 96.4346C302.254 96.4346 302.255 96.4347 302.255 96.4347C302.255 96.4347 302.255 96.4347 302.801 93.4849ZM105.919 60.3286C62.2958 54.8744 16.2567 50.0579 -26.738 47.3403L-27.1165 53.3283C15.7156 56.0356 61.6249 60.8373 105.174 66.2823L105.919 60.3286ZM-93.3688 45.0034C-116.42 44.9561 -138.368 45.4017 -159.231 46.2601L-158.985 52.255C-138.209 51.4003 -116.347 50.9563 -93.3812 51.0034L-93.3688 45.0034ZM-290.325 58.3726C-345.679 66.6931 -388.202 77.7386 -418.638 88.053L-416.712 93.7355C-386.642 83.5451 -344.468 72.5784 -289.433 64.3059L-290.325 58.3726Z" fill="#E7C9B6" mask="url(#path-2-inside-1_386_549)"/>
</g>
</svg>
